<svg xmlns="http://www.w3.org/2000/svg" viewBox="0 0 708.66 708.66" style="enable-background:new 0 0 708.66 708.66" xml:space="preserve"><path style="fill:#329fda" d="M619.04 372.19c7.53 3.72 13.7 10.23 16.76 18.77 6.27 17.46-2.79 36.7-20.25 42.97-17.46 6.27-36.7-2.79-42.97-20.25-3.07-8.54-2.46-17.48.98-25.15.18-.34.36-.7.5-1.06 4.02-8.8 4.71-19.11 1.18-28.94-3.57-9.92-10.77-17.49-19.59-21.7-.18-.1-.35-.18-.53-.24-7.65-3.7-13.92-10.26-17.02-18.89-6.27-17.46 2.79-36.7 20.25-42.97 17.46-6.27 36.7 2.79 42.97 20.25 3.1 8.63 2.44 17.69-1.1 25.41-.1.16-.18.34-.26.52-4.12 8.86-4.86 19.29-1.3 29.21 3.53 9.83 10.63 17.33 19.33 21.57.33.18.7.36 1.05.5z"/><path style="fill:#7dba28" d="M452.82 372.19c7.53 3.72 13.7 10.23 16.76 18.77 6.27 17.46-2.79 36.7-20.25 42.97-17.46 6.27-36.7-2.79-42.97-20.25-3.07-8.54-2.46-17.48.98-25.15.18-.34.36-.7.5-1.06 4.02-8.8 4.71-19.11 1.18-28.94-3.57-9.92-10.77-17.49-19.59-21.7-.18-.1-.35-.18-.53-.24-7.65-3.7-13.92-10.26-17.02-18.89-6.27-17.46 2.79-36.7 20.25-42.97 17.46-6.27 36.7 2.79 42.97 20.25 3.1 8.63 2.44 17.69-1.1 25.41-.1.16-.18.34-.26.52-4.12 8.86-4.86 19.29-1.3 29.21 3.53 9.83 10.63 17.33 19.33 21.57.33.18.7.36 1.05.5zM369.45 372.19c7.53 3.72 13.7 10.23 16.76 18.77 6.27 17.46-2.79 36.7-20.25 42.97-17.46 6.27-36.7-2.79-42.97-20.25-3.07-8.54-2.46-17.48.98-25.15.18-.34.36-.7.5-1.06 4.02-8.8 4.71-19.11 1.18-28.94-3.57-9.92-10.77-17.49-19.59-21.7-.18-.1-.35-.18-.53-.24-7.65-3.7-13.92-10.26-17.02-18.89-6.27-17.46 2.79-36.7 20.25-42.97 17.46-6.27 36.7 2.79 42.97 20.25 3.1 8.63 2.44 17.69-1.1 25.41-.1.16-.18.34-.26.52-4.12 8.86-4.86 19.29-1.3 29.21 3.53 9.83 10.63 17.33 19.33 21.57.33.18.69.36 1.05.5z"/><path style="fill:#fbb810" d="M286.46 372.19c7.53 3.72 13.7 10.23 16.76 18.77 6.27 17.46-2.79 36.7-20.25 42.97-17.46 6.27-36.7-2.79-42.97-20.25-3.07-8.54-2.46-17.48.98-25.15.18-.34.36-.7.5-1.06 4.02-8.8 4.71-19.11 1.18-28.94-3.57-9.92-10.77-17.49-19.59-21.7-.18-.1-.35-.18-.53-.24-7.65-3.7-13.92-10.26-17.02-18.89-6.27-17.46 2.79-36.7 20.25-42.97 17.46-6.27 36.7 2.79 42.97 20.25 3.1 8.63 2.44 17.69-1.1 25.41-.1.16-.18.34-.26.52-4.12 8.86-4.86 19.29-1.3 29.21 3.53 9.83 10.63 17.33 19.33 21.57.33.18.69.36 1.05.5zM203.47 372.19c7.53 3.72 13.7 10.23 16.76 18.77 6.27 17.46-2.79 36.7-20.25 42.97-17.46 6.27-36.7-2.79-42.97-20.25-3.07-8.54-2.46-17.48.98-25.15.18-.34.36-.7.5-1.06 4.02-8.8 4.71-19.11 1.18-28.94-3.57-9.92-10.77-17.49-19.59-21.7-.18-.1-.35-.18-.53-.24-7.65-3.7-13.92-10.26-17.02-18.89-6.27-17.46 2.79-36.7 20.25-42.97 17.46-6.27 36.7 2.79 42.97 20.25 3.1 8.63 2.44 17.69-1.1 25.41-.1.16-.18.34-.26.52-4.12 8.86-4.86 19.29-1.3 29.21 3.53 9.83 10.63 17.33 19.33 21.57.33.18.7.36 1.05.5z"/><circle style="fill:#329fda" cx="521.24" cy="402.46" r="33.46"/><circle style="fill:#7dba28" cx="485.95" cy="306.2" r="33.46"/><circle style="fill:#fbb810" cx="104.32" cy="402.46" r="33.46"/></svg>
