<svg version="1.1" id="Layer_1" xmlns="http://www.w3.org/2000/svg" x="0" y="0" viewBox="0 0 708.66 708.66" style="enable-background:new 0 0 708.66 708.66" xml:space="preserve"><style>.st0{fill:#329fda}.st1{fill:#7dba28}.st2{fill:#fbb810}</style><g id="icon"><path class="st0" d="M685.22 376.65c9.41 4.65 17.12 12.79 20.95 23.46 7.84 21.82-3.49 45.87-25.31 53.71-21.82 7.84-45.87-3.49-53.71-25.31-3.84-10.67-3.07-21.85 1.23-31.43.23-.42.45-.88.62-1.32 5.02-11.01 5.89-23.89 1.48-36.17-4.46-12.4-13.47-21.87-24.49-27.13-.22-.12-.44-.22-.67-.3-9.56-4.62-17.4-12.82-21.28-23.62-7.84-21.82 3.49-45.87 25.31-53.71 21.82-7.84 45.87 3.49 53.71 25.31 3.88 10.79 3.05 22.11-1.38 31.76-.13.2-.23.42-.33.66a47.888 47.888 0 0 0-1.62 36.51c4.41 12.28 13.28 21.66 24.16 26.96.43.23.89.45 1.33.62z"/><path class="st1" d="M477.44 376.65c9.41 4.65 17.12 12.79 20.95 23.46 7.84 21.82-3.49 45.87-25.31 53.71-21.82 7.84-45.87-3.49-53.71-25.31-3.84-10.67-3.07-21.85 1.23-31.43.23-.42.45-.88.62-1.32 5.02-11.01 5.89-23.89 1.48-36.17-4.46-12.4-13.47-21.87-24.49-27.13-.22-.12-.44-.22-.67-.3-9.56-4.62-17.4-12.82-21.28-23.62-7.84-21.82 3.49-45.87 25.31-53.71 21.82-7.84 45.87 3.49 53.71 25.31 3.88 10.79 3.05 22.11-1.38 31.76-.13.2-.23.42-.33.66a47.888 47.888 0 0 0-1.62 36.51c4.41 12.28 13.28 21.66 24.16 26.96.43.23.89.45 1.33.62zM373.23 376.65c9.41 4.65 17.12 12.79 20.95 23.46 7.84 21.82-3.49 45.87-25.31 53.71-21.82 7.84-45.87-3.49-53.71-25.31-3.84-10.67-3.07-21.85 1.23-31.43.23-.42.45-.88.62-1.32 5.02-11.01 5.89-23.89 1.48-36.17-4.46-12.4-13.47-21.87-24.49-27.13-.22-.12-.44-.22-.67-.3-9.56-4.62-17.4-12.82-21.28-23.62-7.84-21.82 3.49-45.87 25.31-53.71 21.82-7.84 45.87 3.49 53.71 25.31 3.88 10.79 3.05 22.11-1.38 31.76-.13.2-.23.42-.33.66a47.888 47.888 0 0 0-1.62 36.51c4.41 12.28 13.28 21.66 24.16 26.96.43.23.88.45 1.33.62z"/><path class="st2" d="M269.49 376.65c9.41 4.65 17.12 12.79 20.95 23.46 7.84 21.82-3.49 45.87-25.31 53.71-21.82 7.84-45.87-3.49-53.71-25.31-3.84-10.67-3.07-21.85 1.23-31.43.23-.42.45-.88.62-1.32 5.02-11.01 5.89-23.89 1.48-36.17-4.46-12.4-13.47-21.87-24.49-27.13-.22-.12-.44-.22-.67-.3-9.56-4.62-17.4-12.82-21.28-23.62-7.84-21.82 3.49-45.87 25.31-53.71 21.82-7.84 45.87 3.49 53.71 25.31 3.88 10.79 3.05 22.11-1.38 31.76-.13.2-.23.42-.33.66a47.888 47.888 0 0 0-1.62 36.51c4.41 12.28 13.28 21.66 24.16 26.96.43.23.89.45 1.33.62zM165.76 376.65c9.41 4.65 17.12 12.79 20.95 23.46 7.84 21.82-3.49 45.87-25.31 53.71-21.82 7.84-45.87-3.49-53.71-25.31-3.84-10.67-3.07-21.85 1.23-31.43.23-.42.45-.88.62-1.32 5.02-11.01 5.89-23.89 1.48-36.17-4.46-12.4-13.47-21.87-24.49-27.13-.22-.12-.44-.22-.67-.3-9.56-4.62-17.4-12.82-21.28-23.62-7.84-21.82 3.49-45.87 25.31-53.71 21.82-7.84 45.87 3.49 53.71 25.31 3.88 10.79 3.05 22.11-1.38 31.76-.13.2-.23.42-.33.66a47.888 47.888 0 0 0-1.62 36.51c4.41 12.28 13.28 21.66 24.16 26.96.42.23.88.45 1.33.62z"/><circle class="st0" cx="562.97" cy="414.49" r="41.82"/><circle class="st1" cx="518.85" cy="294.17" r="41.82"/><circle class="st2" cx="41.82" cy="414.49" r="41.82"/></g></svg>
