<?xml version="1.0" encoding="utf-8"?>
<svg version="1.1" id="Layer_1" xmlns="http://www.w3.org/2000/svg" xmlns:xlink="http://www.w3.org/1999/xlink" x="0px" y="0px"
	 viewBox="0 0 708.66 708.66" style="enable-background:new 0 0 708.66 708.66;" xml:space="preserve">
<g id="icon">
	<path style="fill:#329FDA;" d="M619.04,372.19c7.53,3.72,13.7,10.23,16.76,18.77c6.27,17.46-2.79,36.7-20.25,42.97
		c-17.46,6.27-36.7-2.79-42.97-20.25c-3.07-8.54-2.46-17.48,0.98-25.15c0.18-0.34,0.36-0.7,0.5-1.06c4.02-8.8,4.71-19.11,1.18-28.94
		c-3.57-9.92-10.77-17.49-19.59-21.7c-0.18-0.1-0.35-0.18-0.53-0.24c-7.65-3.7-13.92-10.26-17.02-18.89
		c-6.27-17.46,2.79-36.7,20.25-42.97c17.46-6.27,36.7,2.79,42.97,20.25c3.1,8.63,2.44,17.69-1.1,25.41
		c-0.1,0.16-0.18,0.34-0.26,0.52c-4.12,8.86-4.86,19.29-1.3,29.21c3.53,9.83,10.63,17.33,19.33,21.57
		C618.32,371.87,618.69,372.05,619.04,372.19z"/>
	<path style="fill:#7DBA28;" d="M452.82,372.19c7.53,3.72,13.7,10.23,16.76,18.77c6.27,17.46-2.79,36.7-20.25,42.97
		c-17.46,6.27-36.7-2.79-42.97-20.25c-3.07-8.54-2.46-17.48,0.98-25.15c0.18-0.34,0.36-0.7,0.5-1.06c4.02-8.8,4.71-19.11,1.18-28.94
		c-3.57-9.92-10.77-17.49-19.59-21.7c-0.18-0.1-0.35-0.18-0.53-0.24c-7.65-3.7-13.92-10.26-17.02-18.89
		c-6.27-17.46,2.79-36.7,20.25-42.97c17.46-6.27,36.7,2.79,42.97,20.25c3.1,8.63,2.44,17.69-1.1,25.41
		c-0.1,0.16-0.18,0.34-0.26,0.52c-4.12,8.86-4.86,19.29-1.3,29.21c3.53,9.83,10.63,17.33,19.33,21.57
		C452.1,371.87,452.47,372.05,452.82,372.19z"/>
	<path style="fill:#7DBA28;" d="M369.45,372.19c7.53,3.72,13.7,10.23,16.76,18.77c6.27,17.46-2.79,36.7-20.25,42.97
		c-17.46,6.27-36.7-2.79-42.97-20.25c-3.07-8.54-2.46-17.48,0.98-25.15c0.18-0.34,0.36-0.7,0.5-1.06c4.02-8.8,4.71-19.11,1.18-28.94
		c-3.57-9.92-10.77-17.49-19.59-21.7c-0.18-0.1-0.35-0.18-0.53-0.24c-7.65-3.7-13.92-10.26-17.02-18.89
		c-6.27-17.46,2.79-36.7,20.25-42.97c17.46-6.27,36.7,2.79,42.97,20.25c3.1,8.63,2.44,17.69-1.1,25.41
		c-0.1,0.16-0.18,0.34-0.26,0.52c-4.12,8.86-4.86,19.29-1.3,29.21c3.53,9.83,10.63,17.33,19.33,21.57
		C368.73,371.87,369.09,372.05,369.45,372.19z"/>
	<path style="fill:#FBB810;" d="M286.46,372.19c7.53,3.72,13.7,10.23,16.76,18.77c6.27,17.46-2.79,36.7-20.25,42.97
		c-17.46,6.27-36.7-2.79-42.97-20.25c-3.07-8.54-2.46-17.48,0.98-25.15c0.18-0.34,0.36-0.7,0.5-1.06c4.02-8.8,4.71-19.11,1.18-28.94
		c-3.57-9.92-10.77-17.49-19.59-21.7c-0.18-0.1-0.35-0.18-0.53-0.24c-7.65-3.7-13.92-10.26-17.02-18.89
		c-6.27-17.46,2.79-36.7,20.25-42.97c17.46-6.27,36.7,2.79,42.97,20.25c3.1,8.63,2.44,17.69-1.1,25.41
		c-0.1,0.16-0.18,0.34-0.26,0.52c-4.12,8.86-4.86,19.29-1.3,29.21c3.53,9.83,10.63,17.33,19.33,21.57
		C285.74,371.87,286.1,372.05,286.46,372.19z"/>
	<path style="fill:#FBB810;" d="M203.47,372.19c7.53,3.72,13.7,10.23,16.76,18.77c6.27,17.46-2.79,36.7-20.25,42.97
		c-17.46,6.27-36.7-2.79-42.97-20.25c-3.07-8.54-2.46-17.48,0.98-25.15c0.18-0.34,0.36-0.7,0.5-1.06c4.02-8.8,4.71-19.11,1.18-28.94
		c-3.57-9.92-10.77-17.49-19.59-21.7c-0.18-0.1-0.35-0.18-0.53-0.24c-7.65-3.7-13.92-10.26-17.02-18.89
		c-6.27-17.46,2.79-36.7,20.25-42.97c17.46-6.27,36.7,2.79,42.97,20.25c3.1,8.63,2.44,17.69-1.1,25.41
		c-0.1,0.16-0.18,0.34-0.26,0.52c-4.12,8.86-4.86,19.29-1.3,29.21c3.53,9.83,10.63,17.33,19.33,21.57
		C202.75,371.87,203.12,372.05,203.47,372.19z"/>
	<circle style="fill:#329FDA;" cx="521.24" cy="402.46" r="33.46"/>
	<circle style="fill:#7DBA28;" cx="485.95" cy="306.2" r="33.46"/>
	<circle style="fill:#FBB810;" cx="104.32" cy="402.46" r="33.46"/>
</g>
</svg>
