<svg class="" height="75" xmlns="http://www.w3.org/2000/svg" viewBox="0 0 287 93.54"><path d="M180.25 93.42H8.5a8.5 8.5 0 01-8.5-8.5V8.63A8.5 8.5 0 018.5.13h171.75v93.29z" fill="#2a2e4b"></path><path d="M180.25 93.42h98.24a8.5 8.5 0 008.5-8.5V8.63a8.5 8.5 0 00-8.5-8.5h-98.24v93.29z" fill="#e62a77"></path><g fill="#fff"><circle cx="180.25" cy=".12" r="4.25"></circle><circle cx="180.29" cy="93.42" r="4.25"></circle><circle cx="180.25" cy="8.79" r="1.42"></circle><circle cx="180.25" cy="14.63" r="1.42"></circle><circle cx="180.25" cy="20.46" r="1.42"></circle><circle cx="180.25" cy="26.3" r="1.42"></circle><circle cx="180.25" cy="32.13" r="1.42"></circle><circle cx="180.25" cy="37.97" r="1.42"></circle><circle cx="180.25" cy="43.8" r="1.42"></circle><circle cx="180.25" cy="49.64" r="1.42"></circle><circle cx="180.25" cy="55.47" r="1.42"></circle><circle cx="180.25" cy="61.3" r="1.42"></circle><circle cx="180.25" cy="67.14" r="1.42"></circle><circle cx="180.25" cy="72.97" r="1.42"></circle><circle cx="180.25" cy="78.81" r="1.42"></circle><circle cx="180.25" cy="84.64" r="1.42"></circle></g><g fill="#fff"><path d="M200.67 33.55c0-.41.32-.77.77-.77h9.78c4.99 0 9.08 4.06 9.08 8.96 0 5.03-4.1 9.13-9.04 9.13H207v9.53c0 .41-.37.77-.77.77h-4.79a.77.77 0 01-.77-.77V33.55zm10.18 11.4c1.74 0 3.2-1.38 3.2-3.2 0-1.7-1.46-3-3.2-3H207v6.21h3.85zM219.29 60.12l12.7-27.3c.12-.24.41-.45.69-.45h.41c.28 0 .57.2.69.45l12.7 27.3c.24.53-.08 1.05-.69 1.05h-4.5c-.73 0-1.05-.24-1.42-1.01l-1.46-3.2h-11.03l-1.46 3.24c-.2.49-.65.97-1.46.97H220c-.63 0-.96-.53-.71-1.05zm16.67-8.68l-3.08-6.69h-.04l-3.04 6.69h6.16zM249.79 33.55c0-.41.32-.77.77-.77h4.83c.41 0 .77.36.77.77v21.66h9.65c.45 0 .77.36.77.77v4.42c0 .41-.32.77-.77.77h-15.25a.77.77 0 01-.77-.77V33.55z"></path></g><g fill="#fff"><path d="M31.53 38.65h-5.72a.76.76 0 01-.76-.76v-4.36c0-.4.32-.76.76-.76h17.76c.44 0 .76.36.76.76v4.36c0 .4-.32.76-.76.76h-5.72v21.36c0 .4-.36.76-.76.76h-4.8c-.4 0-.76-.36-.76-.76V38.65zM48.33 33.53c0-.4.36-.76.76-.76h4.8c.4 0 .76.36.76.76v26.48c0 .4-.36.76-.76.76h-4.8c-.4 0-.76-.36-.76-.76V33.53zM73.92 32.37c4 0 6.96 1.24 9.68 3.72.36.32.36.8.04 1.12l-3.12 3.24a.7.7 0 01-1 0c-1.48-1.32-3.44-2.04-5.4-2.04-4.52 0-7.84 3.76-7.84 8.24 0 4.44 3.36 8.12 7.88 8.12 1.88 0 3.92-.68 5.36-1.92.28-.24.8-.24 1.04.04l3.12 3.32c.28.28.24.8-.04 1.08-2.72 2.64-6.16 3.88-9.72 3.88-8 0-14.44-6.36-14.44-14.36.01-8 6.45-14.44 14.44-14.44zM88.45 33.73c0-.52.4-.96.96-.96h4.68c.52 0 .96.44.96.96v10.52l8.88-11.08c.16-.2.52-.4.76-.4h5.04c.76 0 1.16.88.72 1.48l-9.36 11.72 10.2 13.28c.44.6 0 1.48-.76 1.48h-5.52c-.28 0-.64-.16-.72-.28l-9.24-12.56v11.92c0 .52-.44.96-.96.96h-4.68c-.56 0-.96-.44-.96-.96V33.73zM115.37 33.53c0-.4.32-.76.76-.76h16.56c.44 0 .76.36.76.76v4.36c0 .4-.32.76-.76.76h-11.08v4.96h9.12c.4 0 .76.36.76.76v4.36c0 .44-.36.76-.76.76h-9.12v5.4h11.08c.44 0 .76.36.76.76v4.36c0 .4-.32.76-.76.76h-16.56a.76.76 0 01-.76-.76V33.53zM142.41 38.65h-5.72a.76.76 0 01-.76-.76v-4.36c0-.4.32-.76.76-.76h17.76c.44 0 .76.36.76.76v4.36c0 .4-.32.76-.76.76h-5.72v21.36c0 .4-.36.76-.76.76h-4.8c-.4 0-.76-.36-.76-.76V38.65z"></path></g><path fill="#fff" d="M22.14 19.86h132.61v1.42H22.14zM22.59 72.27H155.2v1.42H22.59zM197.44 72.27h70.87v1.42h-70.87zM232.88 22.45l4.6 3.21-1.62-5.37 4.47-3.39-5.61-.12-1.84-5.3-1.85 5.3-5.61.12 4.48 3.39-1.63 5.37zM197.44 19.86h23.07v1.42h-23.07zM245.24 19.86h23.07v1.42h-23.07z"></path></svg>